<svg xmlns="http://www.w3.org/2000/svg" xmlns:xlink="http://www.w3.org/1999/xlink" version="1.1" x="0px" y="0px" viewBox="0 0 100 100" xml:space="preserve" width="100" height="100">
    <path d="M47.62598,10h-2.24902c-2.89453,0-5.24902,2.35449-5.24902,5.24902v10.98712l-8.64258-4.48029
      c-0.23535-0.12109-0.50879-0.14453-0.7627-0.06543c-0.25293,0.08008-0.46289,0.25781-0.58496,0.49316l-1.94019,3.74335
      l-1.37427-0.7121c-4.55762-2.3623-10.23438-0.47949-12.65723,4.19531l-3.06836,5.91992
      c-1.17188,2.25879-1.41699,4.8291-0.69141,7.23438c0.72852,2.41699,2.34863,4.37891,4.56055,5.52539l1.37421,0.71271
      l-1.91132,3.68768c-0.12207,0.23535-0.14551,0.50977-0.06543,0.7627s0.25781,0.46289,0.49316,0.58496l38.24219,19.82062
      l7.58008,14.26727C61.33691,89.20312,62.63867,89.99805,64.0752,90c0.00195,0,0.00391,0,0.00488,0
      c1.43555,0,2.7373-0.79199,3.39746-2.06641l22.08789-42.61426c0.66113-1.27539,0.55664-2.79688-0.27344-3.96973
      c-0.83008-1.1748-2.22949-1.78027-3.62793-1.58398l-15.9303,1.81409L52.875,32.84259V15.24902
      C52.875,12.35449,50.52051,10,47.62598,10z M46.50098,41.43457c3.91113,0,7.09277,3.18164,7.09277,7.0918
      c0,3.91113-3.18164,7.09277-7.09277,7.09277c-3.91016,0-7.0918-3.18164-7.0918-7.09277
      C39.40918,44.61621,42.59082,41.43457,46.50098,41.43457z M45.37695,12h2.24902c1.79199,0,3.24902,1.45703,3.24902,3.24902v25.31085
      c-1.29877-0.71582-2.78906-1.12531-4.37402-1.12531c-1.58466,0-3.07458,0.40936-4.37305,1.12488V15.24902
      C42.12793,13.45703,43.58496,12,45.37695,12z M15.88672,46.31445c-1.72754-0.89551-2.99414-2.43262-3.56543-4.32715
      c-0.57422-1.90527-0.37891-3.94238,0.55176-5.7373l3.06836-5.91992c1.91699-3.69531,6.38574-5.19043,9.96191-3.33984
      l1.37408,0.71198L17.26117,47.02728L15.88672,46.31445z M70.18652,43.54028l0.47137-0.05365l13.83813,7.26794l-3.23822,6.2475
      l-14.18683-7.45074L70.18652,43.54028z M66.15039,51.32758l14.18677,7.45068L77.099,65.0257l-14.18671-7.45068L66.15039,51.32758z
      M61.99164,59.35126l14.18671,7.45068l-3.23859,6.24817l-14.18622-7.45135L61.99164,59.35126z M57.83295,67.375l14.18616,7.45135
      l-3.23816,6.24744L55.75,74.22949c-0.03162-0.01642-0.06598-0.01569-0.09839-0.02844l-0.68671-1.29248L57.83295,67.375z
      M65.70215,87.01367C65.38184,87.63086,64.77637,88,64.08008,88c0,0-0.00098,0-0.00195,0
      c-0.69629-0.00098-1.30176-0.37109-1.62695-1.00098l-5.15137-9.69574l10.56049,5.54669L65.70215,87.01367z M85.91504,41.74902
      c0.69141-0.0918,1.3418,0.18652,1.74414,0.75488s0.45117,1.27734,0.13086,1.89551l-2.37335,4.57898l-11.22296-5.89447
      L85.91504,41.74902z M68.19629,43.03516L53.4082,71.56641L16.66504,52.52246l14.78809-28.53125l8.64062,4.47949
      c0.01093,0.00568,0.02313,0.00452,0.03418,0.00977v13.57172c-1.67603,1.65009-2.71875,3.94165-2.71875,6.47418
      c0,5.01367,4.07812,9.09277,9.0918,9.09277s9.09277-4.0791,9.09277-9.09277c0-2.53229-1.04272-4.82373-2.71875-6.47375v-6.95789
      L68.19629,43.03516z" stroke="black" stroke-width="3"/>
</svg>
